<svg id="visual" viewBox="0 0 900 600" width="900" height="600" xmlns="http://www.w3.org/2000/svg" xmlns:xlink="http://www.w3.org/1999/xlink" version="1.1"><rect x="0" y="0" width="900" height="600" fill="#ffffff"></rect><g transform="translate(879.7661250839627 31.86424152949178)"><path d="M172.8 -197.2C244.1 -186 336.1 -162.6 345.4 -116.3C354.7 -70.1 281.5 -1.2 233.9 54.6C186.3 110.4 164.3 153.1 129.5 179.8C94.8 206.5 47.4 217.3 12.7 199.8C-22 182.3 -44.1 136.7 -109.9 120.1C-175.7 103.4 -285.2 115.8 -303 91.3C-320.8 66.7 -247 5.3 -221.2 -71.3C-195.5 -147.8 -218 -239.3 -189.1 -264.3C-160.3 -289.3 -80.1 -247.6 -14.7 -227.4C50.7 -207.2 101.5 -208.4 172.8 -197.2" fill="#F96C00"></path></g></svg>