<svg width="292" height="404" viewBox="0 0 292 404" fill="none" xmlns="http://www.w3.org/2000/svg">
<path d="M271.974 400.352C261.348 396.348 251.411 387.449 241.616 375.477C231.825 363.51 222.219 348.527 212.237 332.419C192.29 300.232 170.851 263.563 143.541 237.857V237.856L142.254 236.658C115.134 211.679 82.5388 197.222 55.474 185.424C41.712 179.425 29.4027 174.124 19.9301 168.477C10.4473 162.824 3.9159 156.885 1.57458 149.666C-0.766987 142.446 1.03202 133.804 5.3197 123.567C9.60314 113.339 16.3152 101.641 23.6615 88.3372C38.1093 62.1736 54.9469 29.9109 60.1556 -9.05737L60.3949 -10.9187C65.2542 -50.6445 57.8905 -97.2782 52.4828 -144.561C47.07 -191.889 43.6101 -239.896 56.1781 -282.538V-282.539C68.7451 -325.227 97.3732 -362.577 130.134 -383.936C162.644 -405.131 199.111 -410.523 228.023 -389.966L228.704 -389.475C243.265 -378.865 255.928 -361.592 267.249 -340.302C278.567 -319.019 288.523 -293.763 297.689 -267.229C306.854 -240.695 315.222 -212.903 323.372 -186.543C331.52 -160.19 339.451 -135.266 347.735 -114.495V-114.494C364.358 -72.9351 382.371 -48.0233 402.752 -28.4441C423.1 -8.8969 445.845 5.35567 471.792 25.5149V25.5159C497.775 45.6528 527.069 71.7762 549.136 98.886C560.17 112.441 569.386 126.229 575.481 139.627C581.577 153.028 584.538 166.008 583.103 177.961C580.231 201.922 559.74 222.034 531.558 242.176C517.484 252.235 501.536 262.274 484.978 272.787C468.425 283.298 451.269 294.28 434.805 306.215C418.341 318.125 402.58 330.979 387.539 343.298C372.493 355.621 358.173 367.407 344.57 377.202C330.964 386.999 318.105 394.782 305.992 399.116C293.884 403.448 282.555 404.323 271.974 400.352Z" fill="#F96C00" stroke="white"/>
</svg>
