<svg width="33" height="33" viewBox="0 0 33 33" xmlns="http://www.w3.org/2000/svg">
  <g id="icon/action/favorite_border_24px">
    <path
      id="icon/action/favorite_border_24px_2"
      fill-rule="evenodd"
      clip-rule="evenodd"
      d="M16.5004 7.24245C18.9204 4.40995 23.4029 3.25495 27.0329 5.72995C28.9579 7.04995 30.1679 9.27745 30.2504 11.6149C30.4291 16.9499 25.7129 21.2262 18.4941 27.7712L18.3429 27.9087C17.2979 28.8712 15.6891 28.8712 14.6441 27.9224L14.5066 27.7987L14.4236 27.7232C7.25163 21.2071 2.55862 16.9432 2.75038 11.6287C2.83288 9.27745 4.04288 7.04995 5.96788 5.72995C9.59789 3.2412 14.0804 4.40995 16.5004 7.24245ZM16.5004 25.8874L16.6379 25.7499C23.1829 19.8237 27.5004 15.9049 27.5004 11.9312C27.5004 9.1812 25.4379 7.1187 22.6879 7.1187C20.5704 7.1187 18.5079 8.47995 17.7929 10.3637H15.2216C14.4929 8.47995 12.4304 7.1187 10.3129 7.1187C7.56288 7.1187 5.50038 9.1812 5.50038 11.9312C5.50038 15.9049 9.81788 19.8237 16.3629 25.7499L16.5004 25.8874Z"
    />
  </g>
</svg>
