<svg width="33" height="33" viewBox="0 0 33 33" fill="none" xmlns="http://www.w3.org/2000/svg">
<g id="icon/action/visibility_24px">
<path id="icon/action/visibility_24px_2" fill-rule="evenodd" clip-rule="evenodd" d="M16.5 6.1875C9.625 6.1875 3.75375 10.4638 1.375 16.5C3.75375 22.5362 9.625 26.8125 16.5 26.8125C23.375 26.8125 29.2463 22.5362 31.625 16.5C29.2463 10.4638 23.375 6.1875 16.5 6.1875ZM16.5 23.375C12.705 23.375 9.625 20.295 9.625 16.5C9.625 12.705 12.705 9.625 16.5 9.625C20.295 9.625 23.375 12.705 23.375 16.5C23.375 20.295 20.295 23.375 16.5 23.375ZM12.375 16.5C12.375 14.2175 14.2175 12.375 16.5 12.375C18.7825 12.375 20.625 14.2175 20.625 16.5C20.625 18.7825 18.7825 20.625 16.5 20.625C14.2175 20.625 12.375 18.7825 12.375 16.5Z" fill="#6D7D8B"/>
</g>
</svg>
