<svg width="33" height="30" viewBox="0 0 33 30" fill="none" xmlns="http://www.w3.org/2000/svg">
<g id="icon/action/search_24px">
<path id="icon/action/search_24px_2" fill-rule="evenodd" clip-rule="evenodd" d="M20.8815 18.0895H21.9678L27.7978 23.4145C28.3615 23.927 28.3615 24.7645 27.7978 25.277C27.234 25.7895 26.3128 25.7895 25.749 25.277L19.9053 19.9645V18.977L19.534 18.627C17.609 20.127 14.9828 20.902 12.1915 20.477C8.36902 19.8895 5.31652 16.9895 4.84902 13.4895C4.13402 8.20195 9.02902 3.75195 14.8453 4.40195C18.6953 4.82695 21.8853 7.60195 22.5315 11.077C22.999 13.6145 22.1465 16.002 20.4965 17.752L20.8815 18.0895ZM7.53027 12.4645C7.53027 15.577 10.294 18.0895 13.7178 18.0895C17.1415 18.0895 19.9053 15.577 19.9053 12.4645C19.9053 9.35195 17.1415 6.83945 13.7178 6.83945C10.294 6.83945 7.53027 9.35195 7.53027 12.4645Z" fill="#6D7D8B"/>
</g>
</svg>
